<?xml version="1.0" encoding="UTF-8"?><!DOCTYPE svg PUBLIC "-//W3C//DTD SVG 1.1//EN" "http://www.w3.org/Graphics/SVG/1.1/DTD/svg11.dtd"><svg xmlns="http://www.w3.org/2000/svg" xmlns:xlink="http://www.w3.org/1999/xlink" version="1.1" id="Layer_1" x="0px" y="0px" width="512px" height="512px" viewBox="0 0 512 512" xml:space="preserve"><path d="M349.7 322.2c-3.1-3.1-8-3-11.3 0L264 388.6V104c0-4.4-3.6-8-8-8s-8 3.6-8 8v284.6l-74.4-66.3c-3.4-2.9-8.1-3.2-11.2-.1-3.1 3.1-3.3 8.5-.1 11.4 0 0 87 79.2 88 80s2.8 2.4 5.7 2.4 4.9-1.6 5.7-2.4 88-80 88-80c1.5-1.5 2.3-3.6 2.3-5.7s-.8-4.1-2.3-5.7z"/><metadata><rdf:RDF xmlns:rdf="http://www.w3.org/1999/02/22-rdf-syntax-ns#" xmlns:rdfs="http://www.w3.org/2000/01/rdf-schema#" xmlns:dc="http://purl.org/dc/elements/1.1/"><rdf:Description about="https://iconscout.com/legal#licenses" dc:title="ios,arrow,thin,down" dc:description="ios,arrow,thin,down" dc:publisher="Iconscout" dc:date="2017-09-24" dc:format="image/svg+xml" dc:language="en"><dc:creator><rdf:Bag><rdf:li>Benjamin J Sperry</rdf:li></rdf:Bag></dc:creator></rdf:Description></rdf:RDF></metadata></svg>